# xmcd
#
# Track frame offsets:
#	150
#	16395
#	32685
#	48635
#	67357
#	82237
#	95437
#	113700
#	130730
#	155447
#	175022
#
# Disc length: 2613 seconds
#
# Revision: 1
# Processed by: cddbd v1.5.1PL2 Copyright (c) Steve Scherf et al.
# Submitted via: audiograbber 1.81.02
#
DISCID=920a330b
DTITLE=Dorff, Andrew - Hungover and Up
DYEAR=2002
DGENRE=Country
TTITLE0=Misbelieve
TTITLE1=Fine By Me
TTITLE2=Easy Does It
TTITLE3=3:54 AM
TTITLE4=Refujesus
TTITLE5=When the Heart Needs a Break
TTITLE6=This Dream Keeps Coming
TTITLE7=How Come Today
TTITLE8=Overflowing
TTITLE9=Hungover and Up
TTITLE10=Ice Cream Headache
EXTD=
EXTT0=
EXTT1=
EXTT2=
EXTT3=
EXTT4=
EXTT5=
EXTT6=
EXTT7=
EXTT8=
EXTT9=
EXTT10=
PLAYORDER=
